<svg version="1.1" id="Layer_1" xmlns="http://www.w3.org/2000/svg" xmlns:xlink="http://www.w3.org/1999/xlink" x="0px" y="0px"
	 width="100%" viewBox="0 0 1024 1024" enable-background="new 0 0 1024 1024" xml:space="preserve">
<path fill="#000000" opacity="1.000000" stroke="none" 
	d="
M848.256470,447.940247 
	C857.313416,485.231293 859.772034,522.482788 856.540405,560.371704 
	C850.733887,628.450195 826.698303,689.468140 786.655334,744.314209 
	C772.469055,763.744812 754.612854,779.886597 736.186584,795.381226 
	C697.696411,827.747498 653.937195,850.180664 605.979309,864.391479 
	C583.459412,871.064575 560.141846,874.383362 536.702271,876.421936 
	C510.208374,878.726196 483.761414,878.185120 457.487183,874.204895 
	C388.978607,863.826599 327.710510,836.653076 276.851929,789.648071 
	C229.415161,745.805481 194.016998,693.233154 175.617538,630.430420 
	C167.055206,601.204712 162.531876,571.352783 161.539276,540.873108 
	C160.017456,494.142609 167.499557,448.952332 183.952591,405.288818 
	C194.410751,377.534607 209.273972,352.160828 226.735245,328.180206 
	C237.637756,313.207092 248.662613,298.379486 261.491486,285.015656 
	C295.201080,249.900391 335.501282,224.849609 380.869659,207.747131 
	C395.194580,202.347092 409.675415,197.326660 424.725433,194.222672 
	C427.212036,193.709808 428.967102,192.517380 429.620544,189.893402 
	C432.005798,180.315094 436.451691,171.480103 439.684875,162.205536 
	C443.117737,152.357971 446.842499,149.613434 459.209747,150.323410 
	C464.522430,150.628403 469.814819,151.285172 475.116913,151.776917 
	C478.283112,152.070587 481.084442,151.231400 483.313873,148.914154 
	C486.754669,145.337875 491.035553,143.761276 495.877869,143.677994 
	C500.339355,143.601257 501.940002,141.446365 501.852692,137.065170 
	C501.633606,126.071808 501.655457,115.072113 501.699036,104.075432 
	C501.749603,91.303276 508.017242,86.548203 520.453491,89.983131 
	C532.171143,93.219589 543.903992,96.351768 555.814880,98.823349 
	C563.927124,100.506683 566.768372,103.797546 567.618896,111.988411 
	C568.275330,118.310837 567.794983,124.655701 567.208435,130.936661 
	C566.536926,138.128250 561.758423,141.603790 554.351440,140.928406 
	C543.914978,139.976761 533.479980,139.006882 523.050415,137.983582 
	C521.535889,137.835007 519.925598,137.193237 519.524292,139.411636 
	C519.184265,141.290817 519.950317,142.971359 521.820801,143.287247 
	C528.829468,144.470871 535.342407,146.728317 541.086060,151.035187 
	C541.664490,151.468903 542.713318,151.539383 543.483582,151.412598 
	C551.813782,150.041580 560.112976,151.536133 568.424744,151.604004 
	C576.031860,151.666107 578.627563,153.331818 581.083252,160.392273 
	C584.528503,170.298035 587.928711,180.225235 591.019836,190.244568 
	C591.844238,192.916855 593.170410,194.014969 595.692322,194.596313 
	C639.460144,204.685272 679.192810,223.486618 715.678711,249.586746 
	C741.196777,267.841095 764.249634,288.612823 783.329895,313.561768 
	C813.448547,352.944336 835.149475,396.494720 847.345764,444.658173 
	C847.590576,445.625000 847.897278,446.576111 848.256470,447.940247 
M274.933807,310.417938 
	C249.117645,339.796661 228.075256,372.165833 213.044479,408.384003 
	C200.504456,438.600403 192.932190,469.954132 189.882339,502.518646 
	C188.610596,516.097595 188.734726,529.779846 186.262878,543.288635 
	C184.971237,550.347534 186.082306,557.515747 188.451279,564.464539 
	C189.837784,568.531494 190.592636,572.852356 191.267639,577.116638 
	C194.522995,597.681763 198.838440,618.002258 205.322311,637.806396 
	C213.258301,662.045654 225.856369,684.001099 238.992233,705.674011 
	C239.652115,706.762695 240.242554,708.093079 241.969299,708.094666 
	C243.704361,706.922424 243.653595,705.009216 243.738281,703.224609 
	C244.172333,694.078003 247.981934,686.234680 252.965210,678.806152 
	C257.113983,672.621643 262.942444,669.790466 270.294708,669.673096 
	C278.895111,669.535767 280.495483,668.137146 280.599487,659.449890 
	C280.701080,650.964905 280.121277,642.474121 280.078735,633.984680 
	C279.913483,600.994446 279.784241,568.003723 279.751831,535.013123 
	C279.709595,492.024445 279.732422,449.035583 279.856476,406.047180 
	C279.867798,402.121277 278.827026,399.843262 274.769104,398.859924 
	C270.937347,397.931335 268.212677,395.262238 265.844269,392.035706 
	C260.376160,384.586456 260.016235,376.091370 261.233307,367.647949 
	C262.531525,358.641327 270.768585,352.192841 279.919922,351.785034 
	C282.081879,351.688690 284.252441,351.711365 286.417175,351.761200 
	C325.391754,352.658020 364.366272,351.845734 403.340668,351.757141 
	C411.598206,351.738373 411.593994,351.177002 411.331665,342.702209 
	C410.826782,326.391266 410.331726,310.058411 411.391205,293.745331 
	C411.587067,290.729248 411.417908,287.773285 411.213959,284.778931 
	C410.980682,281.353577 409.393250,279.423309 405.958557,279.454590 
	C401.741852,279.492981 398.672241,277.313385 395.929291,274.556274 
	C389.182587,267.774811 386.522034,252.189896 390.907837,243.703201 
	C394.639954,236.481430 400.090179,231.507034 408.971344,231.817032 
	C410.963776,231.886566 414.018890,232.416199 413.571686,229.017197 
	C413.195679,226.159348 410.523743,227.233887 408.646606,227.360519 
	C407.827637,227.415756 407.026917,227.728104 406.215820,227.914780 
	C387.855530,232.140915 371.136871,240.322296 354.579193,249.013657 
	C324.640381,264.728973 297.950500,284.596313 274.933807,310.417938 
M742.170654,603.500000 
	C742.173035,613.665894 742.179138,623.831848 742.176880,633.997742 
	C742.174683,644.162598 742.062378,654.328735 742.194946,664.491760 
	C742.276184,670.719482 743.479248,671.547729 749.412598,670.192444 
	C752.732117,669.434204 756.017639,669.388306 759.258179,670.516357 
	C767.731934,673.466125 773.115662,679.607666 776.186707,687.738770 
	C778.150452,692.938293 779.411743,698.403137 780.981445,703.727051 
	C782.454956,703.400879 782.747559,702.348145 783.225037,701.514648 
	C793.004333,684.443665 801.856995,666.942749 809.083130,648.598633 
	C828.225159,600.005432 833.522949,549.687927 828.565613,497.997711 
	C826.087585,472.159271 820.625000,446.988464 811.474731,422.703888 
	C803.074707,400.410431 794.254028,378.271942 781.736450,357.852264 
	C762.240295,326.048767 736.914612,299.599121 707.299255,277.141907 
	C679.074890,255.739441 648.874512,238.114136 614.243652,229.081390 
	C611.721863,228.423630 609.268127,227.447144 606.461365,228.981125 
	C607.711731,231.932587 609.924561,231.538132 612.016418,231.413300 
	C621.689575,230.836060 630.108948,236.614273 632.913086,245.805710 
	C635.376221,253.879196 633.830933,261.773865 630.804565,269.208435 
	C628.459595,274.969086 623.818481,279.424377 617.300049,279.810913 
	C611.585022,280.149841 610.873291,283.059265 611.175110,287.575287 
	C612.454590,306.717773 611.181213,325.869354 611.286987,345.017029 
	C611.325562,351.998840 611.208191,351.967651 618.132202,352.004883 
	C659.941956,352.229584 701.746277,350.843811 743.559814,351.624939 
	C751.536804,351.773987 757.482422,354.860687 760.768127,362.142883 
	C764.602112,370.640045 764.251831,379.650757 760.921997,387.931763 
	C758.726196,393.392639 755.010071,398.921265 747.341003,398.633850 
	C743.178528,398.477814 741.875000,400.849976 741.886719,405.029449 
	C742.071228,470.852722 742.104309,536.676392 742.170654,603.500000 
M513.499878,524.781677 
	C532.322754,524.758606 551.145569,524.746216 569.968445,524.706421 
	C576.155457,524.693359 582.283508,525.279053 588.285583,526.747742 
	C594.626892,528.299438 595.023376,528.060364 595.015686,521.413574 
	C594.924500,442.293304 594.835205,363.173035 594.749634,284.052765 
	C594.741272,276.283508 594.753967,276.231171 587.143372,276.284973 
	C549.171814,276.553345 511.200592,276.888733 473.228790,277.119110 
	C459.904083,277.199951 446.576385,277.149292 433.253510,276.939667 
	C429.449432,276.879822 427.651489,278.287415 427.566315,282.030151 
	C427.471588,286.191620 427.244995,290.352325 427.244659,294.513367 
	C427.239075,367.970520 427.259277,441.427673 427.273804,514.884827 
	C427.274597,518.835571 427.273926,522.786255 427.273926,526.772705 
	C455.647858,522.963501 484.115997,525.721191 513.499878,524.781677 
M405.416077,577.915588 
	C404.980408,599.574097 405.321960,621.230042 406.480438,642.852051 
	C407.003937,652.622742 408.194214,662.422852 411.118042,671.852112 
	C423.563141,711.986938 449.740326,740.754272 485.711029,761.205505 
	C492.058380,764.814270 499.083618,767.210938 506.486298,767.903992 
	C520.244202,769.191895 531.822937,763.528442 542.767700,756.156189 
	C554.980896,747.929504 565.993835,738.339355 575.520569,727.044556 
	C590.487732,709.299622 601.681152,689.410095 606.393433,666.702942 
	C612.664307,636.486450 611.890808,605.753174 609.534851,575.166260 
	C608.078918,556.263855 597.915039,545.442505 579.935242,541.783264 
	C576.219666,541.027039 572.313354,540.891907 568.503906,540.961426 
	C527.352783,541.712463 486.199127,541.254456 445.046783,541.330627 
	C439.533447,541.340820 434.072021,541.993408 428.712128,543.216431 
	C418.448792,545.558350 411.770874,551.870483 408.335358,561.823975 
	C406.628662,566.768799 406.389526,571.933533 405.416077,577.915588 
M652.228577,661.405457 
	C653.484253,663.702515 655.290222,665.693115 654.893860,668.712341 
	C653.524536,679.144409 642.179932,684.473083 633.442871,678.624817 
	C631.223877,677.139465 628.986206,675.788818 626.562134,674.631165 
	C622.810608,672.839417 620.117981,673.732544 619.303467,677.615479 
	C616.319092,691.842102 608.594849,704.465576 609.817444,720.327087 
	C611.706848,744.838318 610.310486,769.602234 610.325867,794.259033 
	C610.329102,799.452332 611.918335,800.755920 616.934509,800.006653 
	C621.049683,799.391907 620.686523,796.200928 620.535950,793.479858 
	C619.854065,781.161133 619.902832,768.843567 620.078491,756.515137 
	C620.255981,744.059692 622.208557,732.477478 631.658752,723.071350 
	C642.410583,712.369690 658.766968,708.557617 673.163879,714.218994 
	C688.864380,720.393005 698.126465,733.319519 698.256042,749.273010 
	C698.323730,757.602661 698.234863,765.935852 698.452454,774.261230 
	C698.588684,779.470337 699.163696,784.668030 699.635986,791.167358 
	C708.612488,783.801025 716.571533,777.292175 724.498108,770.744019 
	C725.934265,769.557617 725.924377,767.809509 725.886597,766.127686 
	C725.201538,735.648071 726.381897,705.187927 726.729919,674.718567 
	C726.940918,656.241211 726.064514,637.754089 726.022034,619.270630 
	C725.886841,560.461792 725.920959,501.652618 725.872314,442.843567 
	C725.861145,429.349518 725.705200,415.855103 725.778198,402.361725 
	C725.799927,398.349915 724.179504,397.096466 720.299133,397.509888 
	C716.006775,397.967224 711.660706,398.105957 707.339905,398.079651 
	C677.535400,397.898285 647.731567,397.627350 617.927307,397.410339 
	C611.353394,397.362488 611.251770,397.422333 611.284668,404.151031 
	C611.361267,419.807892 611.656555,435.464478 611.636353,451.120880 
	C611.600830,478.600739 611.425049,506.080597 611.218262,533.559814 
	C611.195862,536.532837 611.905273,538.979248 613.672729,541.412354 
	C618.719543,548.359619 622.530090,556.050842 624.019653,564.487183 
	C627.363831,583.427307 626.824707,602.625000 626.688293,621.748291 
	C626.598206,634.379395 625.711182,647.004517 625.212830,659.633545 
	C625.155579,661.085876 624.793823,662.863770 626.614380,663.515747 
	C628.374939,664.146179 629.258728,662.634583 630.270203,661.532410 
	C638.476501,652.589844 643.388916,652.429504 652.228577,661.405457 
M302.964264,778.538025 
	C310.217896,783.679321 317.471497,788.820557 325.670319,794.631775 
	C325.670319,791.788391 325.701782,790.010986 325.665253,788.235046 
	C325.411743,775.912170 324.825104,763.586243 324.960175,751.267944 
	C325.136383,735.192810 332.701599,723.077209 346.947021,715.880615 
	C362.067413,708.242126 377.111633,709.615662 390.784027,719.601379 
	C400.530334,726.719666 405.045593,737.037415 405.214172,749.028870 
	C405.432007,764.522095 405.328033,780.020081 405.328064,795.515991 
	C405.328064,798.156433 406.023621,800.246765 409.055298,800.375000 
	C412.146820,800.505798 412.898102,798.541504 412.924927,795.812378 
	C413.119690,775.991028 413.502350,756.170471 413.538666,736.349182 
	C413.548126,731.181824 413.191223,726.001221 414.233093,720.934753 
	C414.823517,718.063599 414.217194,715.802795 412.772430,713.392944 
	C408.662811,706.538330 403.523102,699.898438 401.806427,692.171997 
	C399.787689,683.085693 395.503998,679.552429 386.455902,681.062256 
	C383.200317,681.605530 381.704895,679.567383 381.568878,676.275085 
	C381.392029,671.993774 380.934204,667.724060 380.598145,663.460266 
	C378.505005,663.159912 376.753204,662.571655 374.699158,663.131653 
	C373.531860,667.338257 374.375763,671.666443 374.237091,675.932129 
	C374.152863,678.522156 373.787994,680.651184 370.623901,680.809998 
	C367.462219,680.968811 366.699280,678.869202 366.535706,676.308044 
	C366.344971,673.322021 366.165314,670.333557 366.075134,667.343201 
	C365.966919,663.754822 364.414917,662.523743 360.762329,664.020569 
	C361.137024,671.232056 359.020844,677.212463 351.894714,680.267700 
	C342.494354,684.298157 338.360107,676.651123 333.366150,671.166260 
	C331.918304,673.181458 332.718201,674.821655 332.867493,676.431152 
	C333.168152,679.672913 331.224640,680.419434 328.527222,680.408875 
	C325.934570,680.398743 323.734772,680.137268 324.483643,676.544067 
	C324.897156,674.559875 325.254608,672.345276 322.170776,672.120239 
	C318.904236,671.881775 318.196411,673.917114 318.396332,676.595947 
	C318.593445,679.237244 318.211487,681.219116 314.839508,681.214233 
	C311.793365,681.209839 310.049164,680.005920 310.007019,676.866760 
	C309.924194,670.703369 309.872894,664.539246 309.865082,658.375366 
	C309.862183,656.101562 310.680450,654.524475 313.369843,654.567200 
	C315.845245,654.606628 317.600677,655.409912 317.951172,658.097717 
	C318.101807,659.252808 318.153961,660.420776 318.301514,661.576355 
	C318.545471,663.487061 319.937286,663.933167 321.549072,663.963745 
	C323.225311,663.995544 324.503082,663.404785 324.684418,661.505798 
	C324.763489,660.678223 324.833557,659.839417 324.788483,659.012268 
	C324.632996,656.158508 325.693420,654.636841 328.807220,654.721436 
	C331.775787,654.802124 332.381805,656.428467 332.312347,658.968384 
	C332.269257,660.546631 331.748688,662.265076 333.213531,664.130493 
	C339.660309,654.097290 347.886475,651.443970 357.835846,658.491333 
	C361.974213,653.927856 376.616638,653.206848 380.937805,657.074158 
	C381.839172,654.321655 384.078766,653.839722 386.514435,653.905579 
	C389.694214,653.991455 391.035248,652.535706 390.943787,649.377625 
	C390.789490,644.049011 390.723358,638.715881 390.738892,633.385010 
	C390.750092,629.551575 388.805786,627.970398 385.155548,628.008911 
	C381.657227,628.045898 378.155640,628.112183 374.660278,628.006775 
	C368.631165,627.825012 365.066681,624.375183 364.857666,618.314514 
	C364.679749,613.155212 364.744476,607.983765 364.834991,602.819946 
	C364.949036,596.311096 367.670654,593.347534 374.232117,593.046936 
	C377.867065,592.880432 381.534180,593.393494 385.185699,593.618103 
	C387.850189,593.781982 389.760101,593.153809 389.863800,589.935913 
	C390.056824,583.946411 390.364319,577.960144 390.671844,571.974915 
	C390.795746,569.563721 389.844757,568.423767 387.351562,567.981384 
	C383.507874,567.299316 379.732971,567.618042 375.905396,567.852356 
	C369.622101,568.236938 365.495850,565.017090 365.110596,558.766846 
	C364.753235,552.969482 365.068512,547.110718 365.399597,541.296753 
	C365.685760,536.272583 368.858734,533.935730 373.702789,533.831604 
	C377.699158,533.745667 381.702179,533.777283 385.697937,533.898987 
	C391.730133,534.082764 394.260986,536.428284 395.634308,542.380127 
	C396.118744,544.479736 395.382599,546.912964 397.164734,549.261963 
	C398.764679,546.965210 399.662109,544.384033 401.460602,543.305786 
	C412.824371,536.492493 411.065735,525.914856 410.947144,515.052002 
	C410.541718,477.899902 410.887268,440.739471 410.968048,403.582306 
	C410.981384,397.458435 410.669769,396.944824 404.508423,397.220337 
	C389.858551,397.875397 375.207947,397.498596 360.560760,397.612488 
	C341.739655,397.758789 322.915527,397.869843 304.092712,397.992096 
	C297.903625,398.032288 297.350372,398.528534 297.331085,404.932220 
	C297.198608,448.920074 297.007599,492.907990 296.993164,536.895935 
	C296.977539,584.371460 297.449280,631.848633 296.113373,679.316040 
	C295.912872,686.440552 295.024750,693.545410 296.508911,700.695007 
	C297.828949,707.054016 298.366241,713.587585 297.961884,720.078308 
	C296.997467,735.559204 297.634888,751.075500 296.832031,766.531982 
	C296.543762,772.081482 298.222534,775.358948 302.964264,778.538025 
M380.964203,821.790100 
	C382.295319,821.777161 383.626404,821.755920 384.957550,821.752808 
	C390.806274,821.739136 391.818817,820.609619 391.480164,814.686523 
	C390.246155,793.102356 388.997681,771.519958 390.536469,749.890137 
	C390.661957,748.126526 390.158722,746.255920 389.654968,744.519897 
	C386.119415,732.335693 374.804596,724.245911 363.153992,725.486511 
	C350.726288,726.809753 340.654205,736.411072 340.425171,748.136536 
	C340.071014,766.269226 340.318298,784.413574 340.293060,802.552979 
	C340.290344,804.496765 340.625488,806.126953 342.657013,807.052246 
	C352.342682,811.463501 361.441864,817.089722 371.389160,820.959961 
	C374.198273,822.052979 377.052032,822.971130 380.964203,821.790100 
M507.134369,156.612183 
	C478.855042,159.794083 468.055084,188.667328 476.368591,208.924530 
	C483.429840,226.130356 501.174225,233.217484 513.220154,232.348694 
	C534.041260,230.846970 548.960388,211.873322 546.737854,189.715195 
	C545.196594,174.348831 530.917419,154.103821 507.134369,156.612183 
M634.890747,797.132751 
	C633.840637,804.082703 634.564148,811.091858 634.199402,818.065369 
	C634.104858,819.873840 634.514893,821.746033 636.778320,821.429016 
	C641.693237,820.740540 647.092285,821.707947 651.438660,819.048218 
	C660.541870,813.477783 670.715942,810.035400 679.707397,804.242065 
	C682.757019,802.277100 684.015076,800.262817 684.036865,796.684753 
	C684.132141,781.060608 684.442688,765.443970 683.921265,749.814819 
	C683.518860,737.754761 671.307068,725.435120 659.255981,725.495178 
	C645.710815,725.562683 635.432495,736.067200 635.262817,750.273804 
	C635.080078,765.578186 635.745178,780.888733 634.890747,797.132751 
M563.272095,262.483124 
	C578.757690,261.197388 594.233398,262.903290 609.716248,262.639526 
	C615.520142,262.540649 615.977661,262.086975 615.941650,255.853455 
	C615.900635,248.750885 615.286682,247.956985 609.508118,247.965637 
	C562.381653,248.036270 515.255188,248.143738 468.128723,248.195007 
	C449.636841,248.215118 431.144867,248.109360 412.652924,248.084579 
	C406.786896,248.076721 405.978394,248.902802 405.941254,254.645294 
	C405.893097,262.105865 406.338654,262.829224 412.558441,262.654175 
	C438.690399,261.918793 464.822815,262.122253 490.950439,262.644745 
	C514.766052,263.121002 538.572021,261.142059 563.272095,262.483124 
M293.510651,382.678131 
	C330.657959,383.005859 367.797882,382.492981 404.935547,381.708221 
	C410.739166,381.585602 410.635712,381.476074 410.911957,374.157745 
	C411.085205,369.567352 410.289886,367.031281 404.771362,367.198425 
	C388.959198,367.677338 373.132996,367.846832 357.312225,367.851959 
	C332.837860,367.859894 308.363464,367.630798 283.889069,367.502045 
	C279.160889,367.477173 277.444611,369.412231 277.383698,374.838135 
	C277.312256,381.199158 278.378448,382.583557 283.520905,382.666290 
	C286.518890,382.714539 289.518280,382.677094 293.510651,382.678131 
M672.422729,367.380707 
	C655.265320,367.437225 638.105591,367.681458 620.951355,367.474091 
	C611.853210,367.364105 610.993164,367.991455 611.157471,377.171844 
	C611.218811,380.599792 612.424744,381.898590 615.852783,381.894928 
	C657.161621,381.850677 698.470581,381.905212 739.779480,381.882355 
	C744.665344,381.879639 745.678711,380.316650 745.798828,374.354218 
	C745.883667,370.144958 744.697815,367.853668 739.855530,367.955200 
	C717.700134,368.419739 695.542419,368.374023 672.422729,367.380707 
M490.500000,842.871338 
	C508.998383,842.894958 527.498169,843.067261 545.994629,842.892334 
	C559.307373,842.766479 572.599915,844.401917 585.938477,842.850403 
	C596.189636,841.658081 605.934753,838.958069 615.402588,834.674744 
	C545.071594,834.563232 474.795502,833.837585 404.484192,835.517029 
	C412.937073,838.415466 421.264465,841.115906 430.045898,841.932800 
	C449.841949,843.774414 469.680603,842.663269 490.500000,842.871338 
M538.500061,813.357483 
	C512.844971,813.319885 487.188751,813.122253 461.535187,813.302124 
	C445.059784,813.417603 428.550415,812.366577 412.112823,814.289917 
	C409.603699,814.583557 406.716370,814.387878 405.335632,817.703064 
	C409.150330,820.349060 413.273834,821.031616 417.650543,821.019958 
	C436.475006,820.969727 455.302063,820.772644 474.123627,821.002869 
	C515.095398,821.504089 556.074280,820.047485 597.044006,821.558838 
	C602.670471,821.766479 608.335571,820.968933 613.980713,820.604309 
	C615.758911,820.489441 617.316833,819.936462 617.543274,817.840027 
	C617.790039,815.554382 616.081787,815.054932 614.401428,814.758972 
	C612.934082,814.500549 611.424072,814.471619 609.930725,814.375671 
	C586.470825,812.868896 562.981140,813.414551 538.500061,813.357483 
M428.245392,737.966125 
	C428.245392,758.280090 428.245392,778.594055 428.245392,798.913574 
	C435.496277,798.913574 442.459320,798.791199 449.415070,798.963196 
	C453.118530,799.054749 454.503784,797.268433 454.628479,793.907593 
	C454.991638,784.116699 455.327942,774.324524 455.762146,764.536743 
	C455.867706,762.157532 455.126953,760.324524 453.221924,758.936707 
	C444.979095,752.932007 437.837982,745.777710 431.247620,738.029663 
	C430.612366,737.282898 429.834625,735.313477 428.245392,737.966125 
M573.193726,750.910950 
	C571.860229,752.318604 571.230896,754.014160 571.354309,755.926392 
	C572.181274,768.740662 571.130371,781.538391 571.012878,794.343811 
	C570.978699,798.071838 572.234314,799.969604 576.255737,799.663208 
	C579.238281,799.436035 582.251831,799.591125 585.251221,799.615845 
	C593.924683,799.687378 594.694214,798.935181 594.606567,790.345215 
	C594.598022,789.512573 594.588562,788.676147 594.507629,787.848511 
	C593.353271,776.041260 594.777405,764.233398 594.493225,752.424377 
	C594.328369,745.574951 594.584778,738.698608 592.839844,730.757507 
	C585.860352,737.836609 581.287781,745.635132 573.193726,750.910950 
M754.224609,740.949768 
	C770.173523,726.295654 771.128235,709.534546 762.047485,692.167175 
	C757.725037,683.900330 749.080872,684.252563 744.503723,692.364502 
	C740.924316,698.708374 739.125977,705.693604 738.543457,712.828186 
	C737.775879,722.229858 738.222656,731.557373 745.549622,738.901428 
	C747.795654,741.152771 750.270996,742.617920 754.224609,740.949768 
M259.412170,727.039001 
	C261.398895,730.295776 263.186462,733.698853 265.437744,736.761108 
	C267.122681,739.052979 268.737122,742.387390 272.374908,741.394531 
	C276.509277,740.266052 279.921753,737.957153 280.837219,733.211548 
	C282.684601,723.634827 282.165955,714.043274 281.026276,704.463196 
	C280.473755,699.818970 279.163666,695.369080 276.626343,691.346313 
	C274.660004,688.228760 272.276703,686.034851 268.230865,686.122864 
	C264.090302,686.212830 261.749908,688.632629 260.392914,692.018372 
	C255.880661,703.276245 254.160416,714.708069 259.412170,727.039001 
M523.018616,798.814331 
	C532.335999,798.863159 541.654602,798.837280 550.970154,798.994202 
	C555.235046,799.066040 557.058105,797.249573 556.788269,792.984863 
	C556.368347,786.349304 556.230957,779.694885 555.754333,773.064270 
	C555.381592,767.878967 553.205933,766.598083 549.014404,769.411621 
	C541.759888,774.281006 533.750916,777.487549 525.798950,780.876160 
	C519.801758,783.431824 516.917786,791.247070 519.741272,797.159546 
	C520.217346,798.156433 521.127441,798.529175 523.018616,798.814331 
M574.599792,193.804398 
	C572.272949,186.883987 569.732788,180.026215 567.676880,173.026215 
	C565.458862,165.474136 563.247620,164.218781 554.967224,166.980682 
	C555.135559,170.010513 556.959045,172.496582 558.030212,175.218964 
	C561.985962,185.272522 562.143982,195.616364 560.578796,206.115982 
	C559.983032,210.112396 559.181763,214.819260 563.414307,216.777771 
	C567.408569,218.625977 572.010010,217.233170 575.565247,214.405930 
	C578.752930,211.871002 579.303406,208.225616 578.208984,204.456573 
	C577.237976,201.112305 575.952332,197.859406 574.599792,193.804398 
M470.216949,795.097412 
	C470.042999,798.313171 472.008514,798.957458 474.680481,798.926208 
	C481.153778,798.850403 487.627930,798.843872 494.101715,798.809509 
	C503.115143,798.761719 503.094452,798.738037 502.878845,789.536011 
	C502.816589,786.880066 502.600861,784.152954 499.525055,783.678162 
	C491.178558,782.389709 483.656494,779.220947 476.378204,775.037964 
	C472.999695,773.096252 470.351135,775.129089 470.240997,779.245300 
	C470.107849,784.221375 470.196594,789.203430 470.216949,795.097412 
M440.059509,211.655380 
	C440.561829,214.496887 438.367126,218.719727 442.855530,219.600098 
	C446.743896,220.362762 450.027802,218.160751 451.705658,214.482452 
	C454.806580,207.684326 458.128937,200.890411 458.367859,193.218735 
	C458.572235,186.656754 459.608643,180.349121 462.489441,174.379074 
	C463.993408,171.262360 463.117279,168.756287 459.733276,167.662109 
	C456.548309,166.632294 454.372437,167.649948 453.259979,171.122726 
	C451.945404,175.226471 450.002380,179.128784 448.685394,183.231934 
	C445.746002,192.389740 441.680573,201.199158 440.059509,211.655380 
M532.269165,109.371696 
	C527.669495,108.143845 523.069763,106.916000 518.141479,105.600441 
	C516.783508,110.126106 517.777283,114.453163 517.341553,118.660599 
	C516.958069,122.363838 518.543091,123.698357 522.198242,123.645157 
	C530.014648,123.531387 537.838501,123.590973 545.652527,123.814163 
	C548.874756,123.906212 551.330139,123.547592 551.538147,119.648293 
	C551.731445,116.025238 551.220154,112.960136 546.719666,112.388275 
	C542.102356,111.801582 537.511475,111.025070 532.269165,109.371696 
M643.186646,671.773804 
	C645.802734,668.653015 646.580322,665.312439 642.761902,662.835388 
	C639.474670,660.703125 637.198486,663.288879 635.328979,665.751770 
	C634.392273,666.985901 633.744568,668.577759 635.039490,669.843262 
	C637.102539,671.859375 639.479492,673.391113 643.186646,671.773804 
M349.943512,663.720337 
	C347.519073,661.597961 345.324432,662.222656 343.563446,664.518250 
	C341.897186,666.690369 341.771179,669.103271 343.427917,671.421753 
	C344.719330,673.229065 346.331329,674.052734 348.556458,673.011597 
	C351.442291,671.661438 352.197937,669.344238 351.552155,666.444580 
	C351.379913,665.671326 350.826141,664.983032 349.943512,663.720337 
z"/>
<path fill="#000000" opacity="1.000000" stroke="none" 
	d="
M310.084534,337.782288 
	C310.071594,336.683777 310.058929,336.018188 310.061401,335.352692 
	C310.070679,332.846802 309.328827,331.159515 306.323578,331.360596 
	C303.379700,331.557617 303.374939,333.544617 303.499542,335.623199 
	C303.683258,338.687714 304.332428,341.902405 299.343628,341.289398 
	C296.931030,340.992950 295.712677,340.058838 295.748535,337.542480 
	C295.843506,330.887054 295.865021,324.230530 295.917542,317.574463 
	C295.937683,315.025391 297.283203,313.886444 299.741333,314.252869 
	C301.996429,314.588989 304.080597,315.284515 303.697296,318.281403 
	C303.365997,320.871735 302.631653,323.438812 303.117218,326.355774 
	C306.301453,326.736237 309.309601,327.336700 313.245209,325.398743 
	C308.103333,323.720795 308.855469,320.408020 309.600189,317.061188 
	C310.296997,313.929657 312.690369,313.938385 315.067963,314.144165 
	C317.727844,314.374329 318.183167,316.305054 317.924866,318.497406 
	C317.124023,325.294281 316.805939,332.087738 317.880920,338.883759 
	C318.229950,341.090118 317.079987,341.872833 315.106903,342.064087 
	C312.204102,342.345490 310.122131,341.638428 310.084534,337.782288 
z"/>
<path fill="#000000" opacity="1.000000" stroke="none" 
	d="
M385.255035,320.225586 
	C381.877472,322.556854 377.829468,321.095947 374.351044,323.037201 
	C376.756775,328.029083 383.245544,323.324432 385.333374,328.365326 
	C382.704163,332.274567 377.048492,327.997437 374.410828,332.232056 
	C376.340057,334.883606 379.088074,333.753204 381.353821,334.153198 
	C383.973694,334.615723 386.424713,335.059692 386.176392,338.522064 
	C385.936340,341.869080 383.310394,341.140869 381.288513,341.176056 
	C367.965881,341.407837 367.986115,341.388123 367.787842,328.188385 
	C367.745544,325.370911 367.697632,322.526733 367.290253,319.747925 
	C366.709778,315.787994 368.498352,314.156403 372.187714,314.064606 
	C375.176453,313.990265 378.167023,313.978271 381.156891,313.962128 
	C385.317535,313.939636 387.093414,315.688202 385.255035,320.225586 
z"/>
<path fill="#000000" opacity="1.000000" stroke="none" 
	d="
M320.786804,331.098816 
	C320.465393,328.232880 320.345978,325.738617 321.173706,323.325775 
	C322.905396,318.277771 328.518738,313.843018 332.995880,313.932251 
	C337.096405,314.013977 342.329681,318.546295 344.142822,323.450409 
	C345.476501,327.057739 347.084686,330.563141 344.212067,334.232971 
	C341.179749,338.106903 337.991882,342.172852 332.595337,341.714355 
	C326.521729,341.198303 323.071625,336.844849 320.786804,331.098816 
M337.706970,323.795410 
	C335.717896,320.641327 332.983887,320.146820 330.121918,322.240448 
	C326.931152,324.574585 326.080811,327.915100 327.968048,331.456207 
	C329.644775,334.602295 332.301453,336.839020 336.064606,335.196747 
	C339.442749,333.722504 340.070557,330.627869 339.136932,327.229279 
	C338.876312,326.280579 338.435425,325.381348 337.706970,323.795410 
z"/>
<path fill="#000000" opacity="1.000000" stroke="none" 
	d="
M392.376587,341.015259 
	C388.991150,340.557343 388.900848,338.326569 388.865143,336.098694 
	C388.769135,330.106110 388.695129,324.113159 388.620911,318.120239 
	C388.596191,316.123169 388.229004,313.844635 391.316193,313.868988 
	C394.131775,313.891235 396.224152,314.834900 396.215179,318.159210 
	C396.205750,321.655640 396.407898,325.162811 396.194824,328.645569 
	C395.979492,332.165863 396.994995,333.769226 400.881348,333.799072 
	C403.377441,333.818268 407.757538,331.776367 407.943512,336.616638 
	C408.127380,341.402039 403.635986,340.270294 400.793549,340.717651 
	C398.185455,341.128082 395.486084,340.958344 392.376587,341.015259 
z"/>
<path fill="#000000" opacity="1.000000" stroke="none" 
	d="
M352.825714,332.881104 
	C352.836975,330.750488 352.748901,329.078644 352.873444,327.422760 
	C353.162384,323.580505 352.625580,320.638428 347.594727,321.610992 
	C345.585815,321.999359 344.805359,320.698212 344.933533,318.971710 
	C345.094818,316.799316 345.423737,314.149933 348.174042,314.116547 
	C353.318115,314.054077 358.472900,314.481903 363.614899,314.829010 
	C365.703827,314.970032 366.266968,316.510712 366.239471,318.386597 
	C366.210327,320.376190 365.207153,321.403320 363.275024,321.742767 
	C361.822174,321.998016 360.306610,320.944183 358.646759,322.196106 
	C357.941589,326.088501 358.282532,330.186432 358.758484,334.302643 
	C359.053040,336.849915 360.155609,340.143585 355.938843,340.331787 
	C351.908844,340.511658 353.127258,337.105438 352.828918,334.844055 
	C352.764191,334.353363 352.821716,333.846527 352.825714,332.881104 
z"/>
<path fill="#000000" opacity="1.000000" stroke="none" 
	d="
M667.731445,330.379211 
	C664.248535,339.238464 659.263367,342.540100 651.888733,341.186615 
	C645.684875,340.048035 639.706421,333.168610 639.707825,327.216339 
	C639.709473,320.237854 644.977234,317.858429 650.033997,315.214081 
	C654.687256,312.780762 658.752502,313.757843 662.252136,317.304657 
	C665.687195,320.786011 668.464111,324.673431 667.731445,330.379211 
M647.192810,325.563507 
	C645.479858,330.402710 649.054321,332.410187 652.167480,334.461456 
	C654.526855,336.016083 656.992676,335.320862 659.044067,333.603485 
	C661.096863,331.884918 661.165649,329.507111 660.343018,327.223907 
	C658.322693,321.616516 652.245300,318.353119 647.192810,325.563507 
z"/>
<path fill="#000000" opacity="1.000000" stroke="none" 
	d="
M688.714600,327.998444 
	C688.710205,327.336121 688.709167,327.169861 688.708435,327.003632 
	C688.644897,313.565430 691.408813,311.422729 705.016296,314.227997 
	C707.116699,314.661011 708.329346,315.584900 708.188782,317.871918 
	C708.052979,320.080841 706.897034,321.205902 704.710876,321.255432 
	C702.717346,321.300659 700.722351,321.276733 698.728577,321.314270 
	C697.245911,321.342163 696.038147,321.901764 695.943420,323.538269 
	C695.835144,325.408173 697.303833,325.553009 698.672546,325.648468 
	C700.329895,325.764069 702.000000,325.756073 703.646362,325.953156 
	C705.175049,326.136139 706.819092,326.611572 706.818542,328.479767 
	C706.817993,330.307831 705.181091,330.792755 703.687317,331.138733 
	C700.671143,331.837372 697.049011,330.662079 694.548950,334.012482 
	C697.151062,336.807892 700.309448,335.300934 703.062256,335.677948 
	C705.132874,335.961609 707.755371,335.322327 707.837463,338.585754 
	C707.923218,341.995728 705.292786,341.360565 703.203064,341.421631 
	C702.705078,341.436218 702.205872,341.409943 701.707214,341.402954 
	C688.797668,341.221802 688.797668,341.221832 688.714600,327.998444 
z"/>
<path fill="#000000" opacity="1.000000" stroke="none" 
	d="
M724.571045,341.164917 
	C720.956360,341.216370 717.787415,341.115753 714.637756,341.316620 
	C711.153564,341.538788 709.911011,339.997498 709.911926,336.632874 
	C709.913391,330.821686 710.339478,324.992249 709.348511,319.200623 
	C708.950439,316.874481 709.212830,314.795410 712.381897,314.710327 
	C715.213745,314.634277 718.032288,314.699738 718.078735,318.491455 
	C718.131531,322.807587 717.855164,327.127655 717.730896,331.446228 
	C717.707764,332.250549 717.727600,333.056091 717.727600,333.746002 
	C719.932922,335.273102 722.160156,334.564117 724.260010,334.672791 
	C726.334778,334.780151 728.448120,334.741272 728.686890,337.501312 
	C728.908630,340.063904 727.376648,341.065216 724.571045,341.164917 
z"/>
<path fill="#000000" opacity="1.000000" stroke="none" 
	d="
M669.285278,313.502319 
	C674.008789,313.630219 678.326355,313.831390 682.646362,313.939178 
	C684.841492,313.993896 686.694763,314.445007 686.944885,317.035583 
	C687.168091,319.347076 686.157410,320.946564 683.783264,321.336914 
	C680.561401,321.866608 679.980164,323.990784 680.095947,326.792175 
	C680.240112,330.280090 680.230347,333.775482 680.233337,337.267700 
	C680.234985,339.166595 680.110474,341.074799 677.485779,341.108826 
	C674.784546,341.143829 673.582031,339.769928 673.638245,337.082672 
	C673.714783,333.425293 673.679443,329.765625 673.700989,326.106995 
	C673.712463,324.164948 673.436584,322.774445 671.022888,322.099182 
	C665.839050,320.648895 665.368286,318.305939 669.285278,313.502319 
z"/>
<path fill="#000000" opacity="1.000000" stroke="none" 
	d="
M622.300232,320.198669 
	C622.292175,326.300720 622.298401,331.931488 622.278320,337.562134 
	C622.273193,338.987305 622.754150,340.816895 620.485107,340.937225 
	C618.205750,341.058105 617.874268,339.378082 617.795837,337.595184 
	C617.534058,331.644348 617.142151,325.695312 617.068054,319.742249 
	C617.041626,317.622955 616.472839,314.292084 619.740479,314.291718 
	C623.141296,314.291351 622.056335,317.585602 622.300232,320.198669 
z"/>
<path fill="#000000" opacity="1.000000" stroke="none" 
	d="
M636.375122,334.430176 
	C636.987000,336.599823 640.402893,338.148102 637.599731,340.187103 
	C635.262268,341.887299 633.090820,340.023010 631.709778,338.113586 
	C629.715820,335.356567 626.915039,333.124084 625.743896,329.767700 
	C632.026062,326.626617 634.473206,327.671570 636.375122,334.430176 
z"/>
<path fill="#000000" opacity="1.000000" stroke="none" 
	d="
M625.390137,321.506287 
	C626.307800,317.854340 627.946899,315.091644 631.616455,315.007263 
	C634.055298,314.951263 637.359192,313.559845 638.971008,317.948212 
	C635.351013,317.232086 633.743225,318.248077 634.734497,321.887878 
	C635.432983,324.452820 633.424561,325.096313 631.501160,324.997070 
	C629.071777,324.871735 625.444763,326.706055 625.390137,321.506287 
z"/>
<path fill="#000000" opacity="1.000000" stroke="none" 
	d="
M525.521606,417.053040 
	C526.844727,424.872375 526.327026,432.356903 526.070129,439.803040 
	C525.929932,443.864563 523.360840,446.664368 519.069519,446.904419 
	C513.765625,447.201050 508.435303,447.329681 503.127869,447.163696 
	C498.595886,447.021973 496.060272,444.061890 495.854065,439.781708 
	C495.534668,433.150757 495.609955,426.488098 495.827850,419.849060 
	C495.948425,416.174500 498.087128,413.501068 501.768066,412.765869 
	C507.839417,411.553253 513.994019,411.734528 520.119202,412.485870 
	C522.665771,412.798218 524.208740,414.515533 525.521606,417.053040 
z"/>
<path fill="#000000" opacity="1.000000" stroke="none" 
	d="
M467.332092,293.909058 
	C472.680939,295.272491 474.370148,298.816315 473.945862,303.450653 
	C473.473969,308.604706 473.506409,313.735779 473.564941,318.900269 
	C473.649078,326.326263 470.767303,328.906982 463.160797,328.910736 
	C459.497375,328.912506 455.825073,329.020569 452.172577,328.808533 
	C446.409149,328.473938 444.015015,326.024994 443.903015,320.364471 
	C443.791046,314.704865 443.855499,309.040314 443.926178,303.378937 
	C443.988800,298.363037 446.454956,295.286072 451.470062,294.322632 
	C456.593811,293.338287 461.752167,293.744995 467.332092,293.909058 
z"/>
<path fill="#000000" opacity="1.000000" stroke="none" 
	d="
M512.945618,471.644592 
	C515.258667,471.655640 517.102539,471.552795 518.919556,471.727997 
	C523.728210,472.191711 526.089417,474.633209 526.198975,479.531952 
	C526.336792,485.692810 526.231567,491.859009 526.244629,498.022888 
	C526.254944,502.906769 523.585388,505.544189 518.966248,505.846039 
	C513.823730,506.182068 508.633209,506.233948 503.488434,505.953644 
	C498.596344,505.687134 495.939392,502.531738 495.774170,497.216949 
	C495.608582,491.890961 495.630676,486.554779 495.728912,481.225983 
	C495.840637,475.167877 498.920349,472.063538 504.968933,471.765533 
	C507.463043,471.642639 509.965515,471.688385 512.945618,471.644592 
z"/>
<path fill="#000000" opacity="1.000000" stroke="none" 
	d="
M526.287964,363.225159 
	C526.284851,368.857971 526.388550,374.023834 526.242065,379.182556 
	C526.101196,384.141235 523.474121,386.910645 518.491455,387.148010 
	C513.339600,387.393463 508.164795,387.395386 503.008392,387.235291 
	C498.429535,387.093140 495.944275,384.285675 495.777130,379.889618 
	C495.536835,373.570465 495.614655,367.233490 495.744171,360.907990 
	C495.833344,356.551422 498.602112,354.411865 502.598938,353.567322 
	C507.380310,352.557007 512.236694,352.862061 517.040894,353.059967 
	C523.823486,353.339386 525.890198,355.713623 526.287964,363.225159 
z"/>
<path fill="#000000" opacity="1.000000" stroke="none" 
	d="
M495.973511,321.314880 
	C495.802185,315.077148 495.636749,309.267181 495.650360,303.457672 
	C495.664886,297.260284 498.713776,294.062439 505.046783,293.755890 
	C509.355042,293.547363 513.687500,293.571655 517.998230,293.751923 
	C522.979126,293.960266 525.992310,296.969208 526.149963,301.981201 
	C526.337952,307.955109 526.366272,313.942291 526.202393,319.916565 
	C526.051758,325.409760 523.199707,328.163086 517.835876,328.287323 
	C512.537476,328.410065 507.266632,328.584900 502.044556,326.988983 
	C499.076691,326.082031 496.899414,324.818146 495.973511,321.314880 
z"/>
<path fill="#000000" opacity="1.000000" stroke="none" 
	d="
M458.091980,352.915466 
	C473.193665,352.931091 474.149628,353.857361 473.955780,368.389709 
	C473.902740,372.368652 473.601044,376.345123 473.377594,380.320709 
	C473.141846,384.515961 470.683289,386.760986 466.700012,386.950958 
	C461.565643,387.195770 456.398926,387.222534 451.267944,386.943024 
	C446.555176,386.686279 444.122345,383.733948 443.938568,379.087494 
	C443.781097,375.106384 443.831329,371.116577 443.814178,367.130524 
	C443.763184,355.281342 445.855164,353.132996 458.091980,352.915466 
z"/>
<path fill="#000000" opacity="1.000000" stroke="none" 
	d="
M459.965332,412.664673 
	C462.109558,412.671570 463.773956,412.621857 465.433014,412.694122 
	C470.747101,412.925659 473.882843,415.726624 473.948364,421.070465 
	C474.025635,427.369476 473.781097,433.695251 473.236420,439.971252 
	C472.855255,444.363220 469.882812,446.749023 465.506805,446.970795 
	C461.194458,447.189362 456.867249,447.185272 452.547211,447.160339 
	C447.838928,447.133179 444.902649,444.757477 444.613800,440.015961 
	C444.220276,433.555328 443.998505,427.067932 444.103790,420.598541 
	C444.182709,415.749298 447.189362,412.996216 452.005798,412.723541 
	C454.491394,412.582855 456.990204,412.676239 459.965332,412.664673 
z"/>
<path fill="#000000" opacity="1.000000" stroke="none" 
	d="
M578.215088,302.366608 
	C578.186340,308.639709 578.307861,314.460480 578.077026,320.267273 
	C577.841248,326.196350 575.586853,328.151428 569.647705,328.182434 
	C565.826599,328.202362 562.003479,328.320709 558.184753,328.237518 
	C552.154297,328.106201 548.911499,324.996948 548.745361,319.036346 
	C548.597290,313.723938 548.650208,308.402924 548.737244,303.087769 
	C548.815857,298.286743 551.301941,295.326202 556.014221,294.358063 
	C561.116760,293.309753 566.245667,293.549500 571.367798,294.247589 
	C575.818848,294.854279 578.198181,297.328308 578.215088,302.366608 
z"/>
<path fill="#000000" opacity="1.000000" stroke="none" 
	d="
M550.782715,415.938171 
	C555.121765,412.537231 569.854736,411.297180 573.964172,413.785004 
	C576.505127,415.323151 578.232483,417.468964 578.241455,420.646301 
	C578.258789,426.800934 578.459473,432.960876 578.264343,439.108490 
	C578.103271,444.182251 575.054260,446.978424 569.974060,447.111816 
	C565.984253,447.216614 561.989197,447.104553 557.997009,447.143799 
	C554.006775,447.182983 550.689941,445.247894 549.966553,441.654419 
	C548.271973,433.236298 547.358398,424.648468 550.782715,415.938171 
z"/>
<path fill="#000000" opacity="1.000000" stroke="none" 
	d="
M549.853271,357.313843 
	C551.898071,354.262360 554.632996,353.068726 557.715149,352.962738 
	C562.021057,352.814667 566.354614,352.793884 570.647217,353.111847 
	C575.694336,353.485687 578.174194,356.169464 578.279968,361.149200 
	C578.403259,366.954193 578.433044,372.769684 578.226135,378.570709 
	C578.027710,384.135651 575.432800,386.707520 569.867126,387.010742 
	C565.563171,387.245239 561.241760,387.188873 556.927856,387.203949 
	C552.628479,387.218964 549.541748,384.791046 549.184265,380.876221 
	C548.481262,373.177277 547.697754,365.368713 549.853271,357.313843 
z"/>
<path fill="#000000" opacity="1.000000" stroke="none" 
	d="
M548.698608,483.227753 
	C549.050537,475.033722 552.137390,471.971802 559.801697,471.874512 
	C563.293396,471.830200 566.803345,471.735657 570.275940,472.019318 
	C575.438599,472.441071 578.088318,475.281799 578.195557,480.465637 
	C578.312561,486.118530 578.325684,491.783478 578.092224,497.431091 
	C577.846069,503.385406 575.244629,505.848083 569.361328,506.049286 
	C565.538635,506.180054 561.706604,506.229370 557.883972,506.125122 
	C552.003418,505.964722 549.006226,503.058960 548.766724,497.169403 
	C548.584290,492.684418 548.709229,488.186920 548.698608,483.227753 
z"/>
<path fill="#000000" opacity="1.000000" stroke="none" 
	d="
M462.805969,471.793274 
	C470.898315,471.916168 473.562958,474.252258 473.891479,481.691132 
	C474.147400,487.486908 474.113739,493.304230 473.316040,499.082092 
	C472.747925,503.196838 470.319214,505.251282 466.259491,505.284851 
	C461.614960,505.323181 456.968872,505.137817 452.323700,505.148071 
	C447.127899,505.159546 444.607483,502.027008 444.275879,497.450928 
	C443.845459,491.511902 443.941193,485.508148 444.226624,479.552155 
	C444.461273,474.655212 447.544525,472.121307 452.380676,471.898834 
	C455.693604,471.746460 459.017212,471.825531 462.805969,471.793274 
z"/>
<path fill="#000000" opacity="1.000000" stroke="none" 
	d="
M550.134644,694.314880 
	C558.351196,692.032593 562.700256,685.858093 567.172119,679.801331 
	C570.352539,675.493713 575.581787,674.371216 580.352844,676.753601 
	C582.535583,677.843506 583.297058,679.278870 582.221069,681.572388 
	C573.391418,700.393677 561.588623,711.643921 540.638367,712.267029 
	C538.973267,712.316589 537.288574,712.245667 535.647766,712.477234 
	C526.781067,713.728882 519.100037,712.210205 513.939575,703.926575 
	C513.125916,702.620483 512.029968,701.168274 510.178650,700.671387 
	C507.718689,701.483337 506.235565,703.615967 504.611633,705.424805 
	C500.954651,709.498230 496.540741,711.611755 491.078552,711.950195 
	C482.899017,712.457031 474.682617,712.653442 466.696442,710.855652 
	C451.218231,707.371521 443.606842,695.550598 437.771423,682.187073 
	C436.751251,679.850830 437.283264,677.336609 439.898743,676.266541 
	C443.287079,674.880371 447.009460,673.405151 450.092987,676.752075 
	C452.337311,679.188293 454.211853,681.981567 456.121674,684.706482 
	C463.801849,695.664307 474.951691,697.022827 486.850739,695.387085 
	C491.183716,694.791504 493.839447,691.248535 495.224274,687.008057 
	C493.715820,684.818481 491.246124,684.443604 489.325256,683.240723 
	C484.723846,680.358887 481.462677,676.557922 480.713898,671.039917 
	C480.239655,667.545105 481.562744,664.738159 484.855011,663.272400 
	C487.920013,661.907776 490.725403,662.785583 493.143005,664.976868 
	C504.670410,675.425232 513.791016,675.715271 526.225647,666.012024 
	C526.619568,665.704712 526.970764,665.313110 527.408997,665.096863 
	C530.477844,663.582275 533.210327,659.887573 537.102417,663.639893 
	C539.977661,666.411926 540.273987,671.509888 537.401978,675.584351 
	C533.861694,680.606934 528.903503,683.867249 523.115906,685.793213 
	C526.343079,693.763855 529.946655,696.105103 537.878967,695.862610 
	C541.888855,695.739990 545.845703,695.335327 550.134644,694.314880 
z"/>
<path fill="#000000" opacity="1.000000" stroke="none" 
	d="
M431.168243,608.187561 
	C449.281219,593.106018 470.108643,594.437744 483.943329,611.295959 
	C489.526398,618.099182 488.801575,622.122498 481.215973,626.434937 
	C464.415466,635.986084 443.214539,633.650452 430.919250,620.893921 
	C425.968231,615.757141 425.966370,613.558167 431.168243,608.187561 
z"/>
<path fill="#000000" opacity="1.000000" stroke="none" 
	d="
M590.030640,613.418823 
	C590.323181,618.780457 586.369507,621.106079 583.153931,623.331238 
	C570.355225,632.188477 556.511597,634.938293 541.642944,628.896362 
	C539.513428,628.031128 537.420410,626.878052 535.603271,625.478210 
	C529.444336,620.733643 528.893738,616.171387 534.108887,610.322327 
	C549.591492,592.957825 574.411621,591.511169 590.030640,613.418823 
z"/>
<path fill="#000000" opacity="1.000000" stroke="none" 
	d="
M531.534912,573.459839 
	C548.276367,562.747681 565.482178,559.507996 583.872803,567.879944 
	C588.180237,569.840881 591.927490,572.515686 594.566711,576.561523 
	C596.687134,579.812073 597.147095,583.118958 594.507141,586.216858 
	C591.872925,589.307983 588.986084,587.518921 586.426880,586.028870 
	C576.726074,580.380859 566.492981,578.140503 555.297180,580.120544 
	C548.976379,581.238281 543.935852,584.609680 538.862549,588.089905 
	C537.356384,589.123169 535.905029,590.235962 534.415527,591.294006 
	C531.096985,593.651367 527.599365,594.494019 524.527527,591.206848 
	C521.488647,587.955139 522.068054,584.146118 524.158997,580.606506 
	C525.876160,577.699585 528.540100,575.636475 531.534912,573.459839 
z"/>
<path fill="#000000" opacity="1.000000" stroke="none" 
	d="
M473.609344,567.204102 
	C480.782867,569.810059 487.043518,573.160339 491.974518,578.606384 
	C493.897888,580.730530 495.412659,583.034790 495.387299,586.123413 
	C495.341919,591.649170 491.153351,594.817810 486.006134,592.765320 
	C483.421082,591.734436 481.006622,590.116028 478.750763,588.445068 
	C464.225525,577.685974 449.062592,577.341431 433.317322,585.439636 
	C432.577972,585.819885 431.844543,586.213623 431.124390,586.628967 
	C428.586609,588.092529 426.150787,588.461243 423.886566,586.091980 
	C421.549774,583.646729 421.061249,580.920227 422.538116,577.862915 
	C423.818848,575.211548 426.000244,573.415649 428.396942,571.877808 
	C442.536621,562.804932 457.510468,561.367981 473.609344,567.204102 
z"/>
<path fill="#000000" opacity="1.000000" stroke="none" 
	d="
M499.645111,744.160889 
	C499.158325,739.245605 498.728943,734.777466 498.201965,730.320984 
	C497.775055,726.710754 498.979126,724.431946 502.897461,724.322144 
	C507.385773,724.196350 511.876465,724.129944 516.366516,724.099426 
	C519.311340,724.079407 520.449707,725.668152 520.368164,728.545593 
	C520.094666,738.198486 519.428833,747.812805 517.309814,757.254272 
	C516.283813,761.825317 514.072205,766.687683 509.123718,766.722473 
	C504.264496,766.756714 502.510773,761.636597 501.508881,757.404419 
	C500.520355,753.228760 500.247314,748.883728 499.645111,744.160889 
z"/>
<path fill="#000000" opacity="1.000000" stroke="none" 
	d="
M697.874146,473.884766 
	C708.327087,473.659393 710.336182,475.642639 710.302124,485.624359 
	C710.285095,490.612152 710.375244,495.601288 710.288330,500.587555 
	C710.189514,506.255219 707.313354,509.163422 701.713562,509.296448 
	C697.725464,509.391205 693.733276,509.354553 689.743286,509.325287 
	C683.724670,509.281128 680.334412,506.555267 679.965088,500.550262 
	C679.588440,494.426300 679.656799,488.239441 680.054077,482.114075 
	C680.402039,476.749023 683.377625,474.266083 688.923889,473.936523 
	C691.740479,473.769196 694.574768,473.899506 697.874146,473.884766 
z"/>
<path fill="#000000" opacity="1.000000" stroke="none" 
	d="
M685.841797,449.694946 
	C680.971252,447.888611 679.909729,444.117188 679.773865,439.950439 
	C679.616821,435.130615 679.619263,430.301636 679.699219,425.479065 
	C679.796143,419.627960 683.196960,415.774933 689.100281,415.229218 
	C693.227173,414.847687 697.423279,414.808167 701.562012,415.056061 
	C707.808716,415.430237 710.862488,418.933624 710.758484,425.147797 
	C710.669556,430.465210 710.519836,435.782196 710.338745,441.097351 
	C710.136902,447.017975 707.949097,449.382202 702.162537,449.314758 
	C696.841125,449.252777 691.580994,450.745636 685.841797,449.694946 
z"/>
<path fill="#000000" opacity="1.000000" stroke="none" 
	d="
M627.678833,486.148560 
	C627.755249,476.448029 630.416199,473.802795 639.553711,473.822968 
	C642.886475,473.830322 646.222046,473.695831 649.551514,473.792877 
	C654.934448,473.949768 657.955750,476.835358 658.075684,482.173248 
	C658.202942,487.834747 658.183899,493.509308 657.949219,499.166595 
	C657.689209,505.436371 654.967346,508.014984 648.654297,508.435303 
	C644.998901,508.678711 641.340942,508.994507 637.681274,509.037964 
	C631.565552,509.110626 628.082764,505.804871 627.803650,499.622253 
	C627.608459,495.297028 627.712646,490.958252 627.678833,486.148560 
z"/>
<path fill="#000000" opacity="1.000000" stroke="none" 
	d="
M682.153687,624.739380 
	C680.401428,622.329773 679.703247,620.004578 679.726318,617.413330 
	C679.772217,612.260071 679.684692,607.105347 679.761658,601.952820 
	C679.845154,596.363037 682.714966,593.086365 688.171448,592.796570 
	C693.145264,592.532349 698.155579,592.521790 703.128052,592.794983 
	C707.559753,593.038513 710.178589,595.656677 710.257874,600.202393 
	C710.371033,606.684448 710.306946,613.170715 710.238281,619.654358 
	C710.200256,623.247498 708.274353,626.094177 704.936279,626.645935 
	C698.742004,627.670044 692.423767,628.147278 686.111755,627.377197 
	C684.521851,627.183289 683.393372,626.218689 682.153687,624.739380 
z"/>
<path fill="#000000" opacity="1.000000" stroke="none" 
	d="
M710.165405,559.535522 
	C709.414856,564.983521 706.858215,567.654114 701.470276,567.463867 
	C697.670471,567.329834 693.850281,567.927551 690.038696,567.935608 
	C684.109558,567.948181 680.181335,564.454407 679.904480,558.632996 
	C679.636658,553.001709 679.693970,547.341614 679.905212,541.705261 
	C680.074829,537.180603 682.551331,534.243042 687.130493,533.508972 
	C692.737244,532.610413 698.395691,532.664856 703.984314,533.547302 
	C708.117798,534.200073 710.353027,536.790710 710.298584,541.157837 
	C710.224060,547.133972 710.221741,553.110901 710.165405,559.535522 
z"/>
<path fill="#000000" opacity="1.000000" stroke="none" 
	d="
M651.290405,593.095459 
	C656.583496,594.363892 658.311523,597.706177 658.222900,602.429626 
	C658.119995,607.913635 658.179016,613.400452 658.106262,618.885254 
	C658.047424,623.315796 655.775757,626.369934 651.471008,626.964355 
	C646.409302,627.663330 641.307861,628.467346 636.102417,627.625671 
	C631.256165,626.842041 628.519104,624.095642 628.185730,619.434631 
	C627.771545,613.642578 627.685120,607.801392 627.899170,601.997742 
	C628.087158,596.902771 632.105957,593.176636 637.411743,592.935669 
	C641.886475,592.732544 646.381165,592.969116 651.290405,593.095459 
z"/>
<path fill="#000000" opacity="1.000000" stroke="none" 
	d="
M638.208252,567.370483 
	C631.094788,568.259277 628.523376,563.710449 628.112854,558.525696 
	C627.667786,552.903687 627.692017,547.215942 627.941895,541.575867 
	C628.174988,536.314209 631.153442,533.388184 636.545837,533.033691 
	C641.181580,532.728882 645.872192,532.730408 650.505798,533.058594 
	C655.926941,533.442566 658.125366,536.055847 658.187134,541.508301 
	C658.249329,546.997498 658.306885,552.490601 658.170837,557.977173 
	C658.006531,564.605469 655.197021,567.297607 648.658447,567.368164 
	C645.331543,567.404053 642.003967,567.376221 638.208252,567.370483 
z"/>
<path fill="#000000" opacity="1.000000" stroke="none" 
	d="
M628.473450,420.935425 
	C630.645386,416.966034 633.895508,415.649750 637.810364,415.622711 
	C641.472595,415.597382 645.136963,415.568878 648.797424,415.660675 
	C655.076477,415.818115 657.759460,418.105194 658.053284,424.291107 
	C658.321289,429.932343 658.247559,435.622131 657.834595,441.254608 
	C657.395630,447.242981 654.803650,449.346405 648.716003,449.392487 
	C644.055420,449.427765 639.392761,449.369659 634.732788,449.271240 
	C630.764648,449.187500 628.190186,446.764313 628.037659,443.166351 
	C627.729309,435.895325 626.529968,428.562897 628.473450,420.935425 
z"/>
<path fill="#000000" opacity="1.000000" stroke="none" 
	d="
M684.983032,681.354431 
	C683.336548,681.358276 682.166260,681.280334 681.009399,681.372131 
	C677.242065,681.671021 675.480652,680.190796 675.678955,676.204102 
	C675.826599,673.236755 675.502808,670.229736 675.190186,667.261353 
	C674.980286,665.268433 674.630798,663.175110 671.748901,663.358398 
	C668.813110,663.545044 668.322327,665.554443 668.282776,667.878052 
	C668.243225,670.204956 668.285583,672.534058 668.330444,674.861450 
	C668.374146,677.127502 668.325684,679.414124 665.381714,679.738708 
	C662.398804,680.067627 660.527954,678.429504 660.121948,675.609436 
	C659.745728,672.996338 659.866882,670.306519 659.838989,667.649780 
	C659.814819,665.346619 659.631775,663.388977 656.604919,663.035217 
	C654.063110,662.738159 654.296997,660.605957 654.497681,658.754028 
	C654.702820,656.861511 655.133606,655.052124 657.524902,654.853821 
	C658.682495,654.757812 659.849426,654.763855 661.012451,654.744202 
	C669.441589,654.601868 677.876038,655.391602 686.305786,654.085815 
	C689.023926,653.664734 692.617493,653.054749 693.551270,657.319275 
	C694.061523,659.649841 693.873169,661.694580 690.882812,662.175110 
	C689.779724,662.352417 688.488037,662.243469 688.023254,663.667603 
	C696.014160,667.909363 696.069275,668.274109 689.467468,673.231689 
	C689.978882,674.113342 690.868713,673.960693 691.648376,673.947083 
	C693.954346,673.906982 695.057007,675.101135 695.025269,677.297302 
	C694.992188,679.589111 693.914978,681.111816 691.449158,681.224365 
	C689.456787,681.315308 687.460144,681.311951 684.983032,681.354431 
z"/>
<path fill="#000000" opacity="1.000000" stroke="none" 
	d="
M712.276428,681.071655 
	C708.861816,681.230225 705.845032,681.069580 702.878357,681.383301 
	C697.888855,681.910767 695.881470,679.724182 695.952209,674.878967 
	C696.029907,669.554321 695.957397,664.235535 696.574890,658.927429 
	C696.856750,656.503906 697.494019,654.777527 700.382629,654.732300 
	C703.318054,654.686401 705.006348,655.657288 705.464417,658.850708 
	C705.964478,662.336792 706.086426,665.810303 706.037842,669.300232 
	C705.995361,672.354797 707.067505,673.984924 710.424927,673.763428 
	C712.142273,673.650146 714.487610,673.152771 715.131165,675.460754 
	C715.753418,677.692505 714.819702,679.707642 712.276428,681.071655 
z"/>
<path fill="#000000" opacity="1.000000" stroke="none" 
	d="
M321.456696,509.132629 
	C315.354645,507.873505 312.870087,505.226166 312.719055,499.674194 
	C312.560913,493.859955 312.572906,488.031555 312.790375,482.219788 
	C312.952240,477.893372 315.173737,474.898926 319.746735,474.558807 
	C324.874146,474.177490 330.047394,473.751068 335.162201,474.035675 
	C341.075531,474.364777 343.258972,477.172455 343.276031,483.166138 
	C343.291626,488.652405 343.307922,494.139587 343.226990,499.624969 
	C343.144836,505.195862 339.944885,508.673889 334.369019,509.004547 
	C330.225189,509.250305 326.058594,509.112183 321.456696,509.132629 
z"/>
<path fill="#000000" opacity="1.000000" stroke="none" 
	d="
M343.204376,602.338135 
	C343.175262,607.788269 343.220642,612.776489 343.112091,617.761353 
	C342.971130,624.234070 340.020111,627.144104 333.648743,627.367554 
	C329.997070,627.495544 326.349945,627.804382 322.698059,627.862183 
	C316.593201,627.958862 313.151520,625.107605 312.825745,619.112915 
	C312.492523,612.980469 312.619019,606.814453 312.759369,600.668030 
	C312.846497,596.853088 315.152008,594.509338 318.776520,593.707581 
	C324.509247,592.439636 330.344482,592.445740 336.122040,593.244263 
	C340.944427,593.910767 343.394501,596.905396 343.204376,602.338135 
z"/>
<path fill="#000000" opacity="1.000000" stroke="none" 
	d="
M325.107727,449.364227 
	C314.578339,449.296967 312.739624,447.449463 312.619324,437.411346 
	C312.569519,433.254761 312.339539,429.098083 312.387634,424.943726 
	C312.404449,423.489410 312.755646,421.918945 313.389709,420.612946 
	C315.872620,415.498596 326.496307,413.034149 335.882294,415.264099 
	C341.173889,416.521301 343.400421,420.071747 343.306396,427.048859 
	C343.248047,431.380280 343.319458,435.715698 343.160522,440.043030 
	C342.916168,446.697113 340.188995,449.289825 333.583191,449.357178 
	C330.917664,449.384338 328.251648,449.363251 325.107727,449.364227 
z"/>
<path fill="#000000" opacity="1.000000" stroke="none" 
	d="
M389.691803,508.197693 
	C383.442139,510.061493 377.411682,509.470245 371.511047,509.040222 
	C366.981689,508.710144 365.350494,504.669312 365.106964,500.703583 
	C364.751312,494.912506 364.744110,489.070801 365.056915,483.276031 
	C365.376648,477.353424 368.312225,474.474365 374.168243,474.111603 
	C378.296783,473.855835 382.486420,473.907074 386.602264,474.303772 
	C391.369171,474.763275 394.020020,477.570618 394.181274,482.555084 
	C394.363647,488.194031 394.677002,493.828674 394.930084,499.465363 
	C395.103851,503.335754 393.501709,506.200348 389.691803,508.197693 
z"/>
<path fill="#000000" opacity="1.000000" stroke="none" 
	d="
M320.405609,533.731567 
	C325.312317,533.441040 329.786377,532.992065 334.260498,532.991333 
	C340.194855,532.990295 343.098480,536.017395 343.171265,541.945801 
	C343.236511,547.258972 343.264221,552.575745 343.142670,557.887146 
	C342.990234,564.547974 340.240143,567.239075 333.737640,567.308350 
	C329.752014,567.350830 325.764954,567.391174 321.780029,567.332275 
	C316.300171,567.251343 312.986023,564.291931 312.781464,558.881348 
	C312.561981,553.077209 312.637787,547.255554 312.777771,541.446167 
	C312.888000,536.872375 315.915436,534.777527 320.405609,533.731567 
z"/>
<path fill="#000000" opacity="1.000000" stroke="none" 
	d="
M394.274353,432.002197 
	C394.217499,449.121948 394.114258,449.227600 377.649872,449.390839 
	C376.151703,449.405701 374.652588,449.437378 373.155212,449.403839 
	C367.789490,449.283661 365.146790,446.964233 364.895782,441.593292 
	C364.639557,436.110565 364.581848,430.601135 364.804291,425.118286 
	C365.031097,419.526611 368.834229,415.953033 374.501099,415.731323 
	C377.989227,415.594818 381.498901,415.659210 384.984161,415.873413 
	C391.860596,416.296051 394.422455,419.145660 394.363464,426.020386 
	C394.347748,427.851501 394.306488,429.682373 394.274353,432.002197 
z"/>
<path fill="#000000" opacity="1.000000" stroke="none" 
	d="
M518.320312,182.103699 
	C517.338989,187.722763 515.828491,188.668274 509.476868,188.237549 
	C505.500336,187.967911 502.880768,186.400833 502.713837,181.978897 
	C502.538910,177.344101 505.338715,175.433243 509.301056,174.795441 
	C514.038452,174.032913 516.993103,176.407394 518.320312,182.103699 
z"/>
</svg>